<svg xmlns="http://www.w3.org/2000/svg" width="18.467" height="22.514" viewBox="0 0 18.467 22.514"><defs><style>.a{fill:#173a50;}</style></defs><g transform="translate(-46.022)"><path class="a" d="M52.144,135.285c-3.351-.019-6.122-6.859-6.122-10.343,0-5.69,4.269-6.936,5.914-6.936a6.805,6.805,0,0,1,2.231.549,4.987,4.987,0,0,0,1.274.365,3.964,3.964,0,0,0,.914-.3,7.326,7.326,0,0,1,2.755-.666h.006a5.647,5.647,0,0,1,4.725,2.387l.345.518-.5.374a4.174,4.174,0,0,0-2,3.442,3.885,3.885,0,0,0,2.168,3.591c.31.187.632.379.632.8,0,.275-2.2,6.181-5.383,6.181a4.329,4.329,0,0,1-1.818-.441,3.686,3.686,0,0,0-1.618-.39,4.162,4.162,0,0,0-1.281.347,6.275,6.275,0,0,1-2.222.518Z" transform="translate(0 -112.771)"/><path class="a" d="M259.384,0c.083,2.994-2.058,5.07-4.2,4.94C254.836,2.551,257.326,0,259.384,0Z" transform="translate(-199.936)"/></g></svg>