<svg xmlns="http://www.w3.org/2000/svg" width="17.666" height="22.317" viewBox="0 0 17.666 22.317"><defs><style>.a{fill:#173a50;}</style></defs><g transform="translate(-53.35 0.001)"><g transform="translate(57.069 8.369)"><g transform="translate(0)"><path class="a" d="M148.446,192.034h-9.3a.465.465,0,0,0-.465.465v7.438a2.329,2.329,0,0,0,1.86,2.278v2.371a1.395,1.395,0,1,0,2.789,0v-2.324h.93v2.324a1.395,1.395,0,0,0,2.789,0v-2.371a2.328,2.328,0,0,0,1.86-2.278V192.5A.464.464,0,0,0,148.446,192.034Z" transform="translate(-138.683 -192.034)"/></g></g><g transform="translate(57.069 -0.001)"><g transform="translate(0 0)"><path class="a" d="M146.231,2.477l.784-1.829a.465.465,0,1,0-.855-.365l-.784,1.83a5.067,5.067,0,0,0-3.156,0l-.786-1.83a.464.464,0,1,0-.854.365l.784,1.829a5.117,5.117,0,0,0-2.682,4.5.465.465,0,0,0,.465.465h9.3a.465.465,0,0,0,.465-.465A5.119,5.119,0,0,0,146.231,2.477Zm-4.293,3.1a.465.465,0,1,1,.465-.465A.465.465,0,0,1,141.938,5.58Zm3.719,0a.465.465,0,1,1,.465-.465A.465.465,0,0,1,145.658,5.58Z" transform="translate(-138.684 0.001)"/></g></g><g transform="translate(68.227 8.369)"><g transform="translate(0)"><path class="a" d="M396.079,192.034a1.4,1.4,0,0,0-1.395,1.395v4.649a1.395,1.395,0,1,0,2.789,0v-4.649A1.4,1.4,0,0,0,396.079,192.034Z" transform="translate(-394.684 -192.034)"/></g></g><g transform="translate(53.35 8.369)"><path class="a" d="M54.745,192.034a1.4,1.4,0,0,0-1.395,1.395v4.649a1.395,1.395,0,1,0,2.789,0v-4.649A1.4,1.4,0,0,0,54.745,192.034Z" transform="translate(-53.35 -192.034)"/></g></g></svg>