<svg xmlns="http://www.w3.org/2000/svg" width="233" height="40.239" viewBox="0 0 233 40.239"><defs><style>.a{fill:#53905f;}.b{fill:#fff;}.c{fill:#173a50;font-size:33px;font-family:Montserrat-SemiBold, Montserrat;font-weight:600;}.d{letter-spacing:-0.01em;}</style></defs><g transform="translate(-611 166.991)"><g transform="translate(611 -166.991)"><path d="M32.6,0a58.978,58.978,0,0,1,4.584,9.068,98.6,98.6,0,0,1,3.37,9.607c.438,1.637.918,3.265,1.281,4.922l.283,1.229c.094.414.2.823.279,1.241l.494,2.494.245,1.249.2,1.255.4,2.51c.072.42.116.839.167,1.261l.153,1.263.3,2.524L44.046,36.1l-.165-1.259c-.054-.422-.1-.841-.181-1.259l-.4-2.508-.2-1.255-.249-1.247-.5-2.49c-.076-.418-.187-.827-.281-1.239l-.3-1.237c-.367-1.655-.851-3.279-1.3-4.914a98.593,98.593,0,0,0-3.335-9.6c-.325-.783-.643-1.568-1-2.337L35.608,5.6l-.554-1.145A46.546,46.546,0,0,0,32.6,0Z" transform="translate(-26.054 1.282)"/><path d="M41.94,0a57.874,57.874,0,0,1,4.181,9.141,97.888,97.888,0,0,1,2.948,9.619c.367,1.637.775,3.265,1.066,4.918l.237,1.235c.076.4.169.821.225,1.237l.392,2.486.2,1.245.147,1.249.3,2.5c.054.416.08.835.112,1.253l.1,1.253.2,2.508-.241-2.5-.108-1.253c-.036-.416-.068-.835-.127-1.249l-.3-2.5L51.113,29.9l-.2-1.243-.4-2.482c-.058-.416-.153-.825-.229-1.237L50.053,23.7c-.3-1.651-.711-3.277-1.082-4.91a96.82,96.82,0,0,0-2.914-9.623c-.289-.785-.574-1.574-.892-2.347l-.472-1.165L44.183,4.5A45.782,45.782,0,0,0,41.94,0Z" transform="translate(-33.518 1.282)"/><path d="M50.06,1.58a43.477,43.477,0,0,1,2.112,4.5l.462,1.153L53.06,8.4c.3.773.546,1.564.8,2.349a95.29,95.29,0,0,1,2.57,9.6c.313,1.627.651,3.251.886,4.892l.2,1.227c.064.4.133.819.177,1.231l.3,2.468c.048.412.106.821.145,1.235l.106,1.237.233,2.478c.04.4.05.827.07,1.241L58.61,37.6l.112,2.482-.147-2.472-.07-1.241c-.024-.414-.04-.827-.084-1.239L58.2,32.653l-.11-1.237c-.04-.412-.1-.821-.149-1.233l-.309-2.474c-.046-.4-.116-.819-.183-1.229l-.2-1.225c-.239-1.641-.584-3.261-.9-4.886a95.951,95.951,0,0,0-2.532-9.6c-.265-.785-.51-1.576-.8-2.349l-.428-1.167L52.128,6.1A43.4,43.4,0,0,0,50.06,1.58Z" transform="translate(-40.008 0.02)"/><path d="M25.68,0a47.75,47.75,0,0,1,2.548,4.448c.2.382.4.761.574,1.147l.556,1.159.275.578.261.586.518,1.173c1.355,3.139,2.528,6.353,3.59,9.6l.751,2.452.187.6.169.618.339,1.237.335,1.247.169.618.151.625.6,2.492c.1.418.2.829.293,1.249l.261,1.255.522,2.51c.313,1.681.588,3.37.884,5.052-.313-1.681-.6-3.365-.932-5.042L37.2,31.1l-.267-1.253c-.084-.42-.2-.831-.3-1.247l-.6-2.49-.153-.622-.173-.618-.341-1.235L35.029,22.4l-.171-.616-.189-.6-.763-2.458c-1.05-3.251-2.213-6.476-3.56-9.609l-.514-1.173-.259-.586-.273-.58-.544-1.155c-.181-.386-.382-.763-.57-1.147A47.509,47.509,0,0,0,25.68,0Z" transform="translate(-20.523 1.282)"/><path d="M11.92,0a43.69,43.69,0,0,1,3.012,4.291l.689,1.116.657,1.137c.448.751.845,1.532,1.263,2.3A96.174,96.174,0,0,1,21.878,18.4l.9,2.464.229.62c.074.2.137.416.2.622l.4,1.247.4,1.249c.137.416.275.829.39,1.253l.721,2.522c.118.422.249.839.355,1.263l.331,1.281.627,2.548c.11.424.187.855.275,1.283l.261,1.285.522,2.572-.546-2.566-.273-1.283c-.092-.428-.173-.857-.287-1.279l-.635-2.56-.317-1.273c-.108-.424-.241-.839-.359-1.261l-.729-2.518c-.116-.424-.255-.837-.4-1.251l-.4-1.247-.4-1.245c-.07-.2-.135-.416-.2-.62l-.229-.614-.938-2.456a95.309,95.309,0,0,0-4.291-9.562c-.414-.769-.8-1.55-1.253-2.3l-.653-1.137-.685-1.118A43.21,43.21,0,0,0,11.92,0Z" transform="translate(-9.526 1.282)"/><path class="a" d="M0,0A48.353,48.353,0,0,1,8.635,12.434a83.057,83.057,0,0,1,6.285,17.2c.464,1.829.675,2.841,1.267,4.978.416,1.494.7,3.271,1.542,3.992a1.015,1.015,0,0,0,1.564-.036A6.023,6.023,0,0,0,20.2,35.9q.273-1.556.554-3.114c.376-2.074.773-4.147,1.221-6.207s.944-4.108,1.522-6.135l.229-.789A9.656,9.656,0,0,1,26.352,14.8c1.755-1.468,4.273-1.606,6.259-2.745a9.069,9.069,0,0,0,3.835-5.02,22.934,22.934,0,0,0,.98-6.353c0-.215,0-.472-.185-.584A.622.622,0,0,0,36.854.05,54.379,54.379,0,0,0,30.038,1.1,10.316,10.316,0,0,0,25.42,3.245c-1.9,1.729-2.56,4.4-3.108,6.906a.6.6,0,0,0,.03.486c.233.321.711-.046.922-.38a15.687,15.687,0,0,1,4.486-4.6c.187-.127.436-.251.627-.129.291.187.074.635-.153.9-3.556,4.072-5.422,9.366-6.488,14.659-.418,2.068-.731,4.155-1,6.245s-.544,4.2-.855,6.3c-.122.8-.239,1.629-.343,2.446-.076.6-.219,3.149-1.406,2.307a1.406,1.406,0,0,1-.456-.574,5.755,5.755,0,0,1-.283-.767c-.08-.275-.159-.552-.233-.829s-.165-.6-.245-.918-.173-.667-.259-1-.183-.719-.275-1.078-.2-.769-.293-1.153-.2-.813-.315-1.221-.225-.853-.339-1.281-.241-.892-.363-1.337-.259-.926-.4-1.388-.279-.958-.424-1.436-.3-.982-.456-1.474-.323-1-.492-1.508-.347-1.026-.528-1.536-.376-1.042-.57-1.56-.4-1.056-.6-1.578-.432-1.064-.657-1.592-.462-1.068-.7-1.606-.494-1.068-.753-1.606-.53-1.068-.8-1.6-.564-1.06-.859-1.584S7.213,8.7,6.9,8.179s-.641-1.038-.974-1.55S5.247,5.623,4.892,5.123s-.723-1-1.1-1.494-.767-.978-1.165-1.456S1.807,1.221,1.392.759C1.141.482.8.269.546,0" transform="translate(0 1.282)"/><path d="M11.92,0c.618.2,1.221.432,1.837.661s1.2.48,1.807.755c-.622-.2-1.229-.43-1.837-.661S12.51.275,11.92,0Z" transform="translate(-9.526 1.282)"/><path d="M25.68,0a10,10,0,0,1,.988.4,9.334,9.334,0,0,1,.948.482,10.2,10.2,0,0,1-.988-.4A10,10,0,0,1,25.68,0Z" transform="translate(-20.523 1.282)"/><path d="M32.6,0c.4.084.785.2,1.169.317a11.352,11.352,0,0,1,1.139.412c-.4-.084-.783-.2-1.169-.317A11.176,11.176,0,0,1,32.6,0Z" transform="translate(-26.054 1.282)"/><path d="M41.94,0a6.313,6.313,0,0,1,.825.108,6.241,6.241,0,0,1,.8.2A5.992,5.992,0,0,1,42.755.2,6.317,6.317,0,0,1,41.94,0Z" transform="translate(-33.518 1.282)"/><path class="b" d="M137.55,36.924a6.959,6.959,0,0,0,1.305-.376l.313-.12.3-.141c.2-.088.4-.2.6-.3a12.2,12.2,0,0,0,2.169-1.54l.5-.448c.159-.157.309-.321.468-.48.329-.3.59-.671.9-1,.155-.165.277-.355.422-.528l.424-.532c.265-.369.526-.741.815-1.1-.171.426-.367.843-.566,1.263-.233.4-.456.8-.719,1.187-.135.189-.271.376-.4.56-.07.092-.137.189-.213.277l-.231.263c-.155.175-.309.349-.47.518l-.532.48a6.838,6.838,0,0,1-.548.442,5.453,5.453,0,0,1-.572.4,8.364,8.364,0,0,1-1.241.663,6.814,6.814,0,0,1-1.337.424A4.6,4.6,0,0,1,137.55,36.924Z" transform="translate(-109.929 -22.973)"/><text class="c" transform="translate(41 32)"><tspan x="0" y="0">OUR </tspan><tspan class="d" y="0">P</tspan><tspan y="0">RINT</tspan></text></g></g></svg>