<svg xmlns="http://www.w3.org/2000/svg" width="279.021" height="284.393" viewBox="0 0 279.021 284.393"><defs><style>.a{fill:rgba(83,144,95,0.2);}.b,.c,.g{fill:none;stroke-miterlimit:10;}.b{stroke:#53905f;}.b,.g{stroke-linecap:round;}.c{stroke:#173a50;}.d{fill:#fff;}.e{fill:#53905f;}.f{fill:#173a50;}.g{stroke:#fff;}</style></defs><g transform="translate(0.36 -96.916)"><path class="a" d="M234.454,165.942a72.038,72.038,0,0,0-5.776,10.9,76.13,76.13,0,0,0-2.32,52.957c3.781,11.6,9.58,22.338,20.3,28.787a80.793,80.793,0,0,0,27.093,9.093c24.124,4.639,49.06,5.4,72.372,13.106,12.8,4.245,24.843,10.461,37.485,15.147,33.565,12.433,73.973,5.126,98.445-22.106,21.828-24.31,27.441-63.094,6.773-89.538-8.884-11.366-19.578-21.387-27.14-33.681-4.825-7.864-8.281-16.516-12.8-24.565-7.748-13.918-20.459-23.8-34.794-30.5A119.369,119.369,0,0,0,351.131,84.8,83.507,83.507,0,0,0,320.28,94.08c-10.3,5.637-16.237,13.361-23.753,22.013-10.369,12.062-27.14,18.766-40.176,27.464a76.85,76.85,0,0,0-21.9,22.384Z" transform="translate(-223.047 70.117)"/><path class="b" d="M263.55,180a285.035,285.035,0,0,1,48.086,13.268c12.34,4.639,23.8,10.577,36.882,12.92a92.043,92.043,0,0,0,67.455-13.454,80.886,80.886,0,0,0,26.722-30.573" transform="translate(-169.123 173.018)"/><path class="b" d="M256,168.7c2.992.255,5.985.58,8.954.951" transform="translate(-179.086 181.648)"/><path class="c" d="M253.22,214.959V74.065A14.4,14.4,0,0,1,267.6,59.66H367.67a14.4,14.4,0,0,1,14.4,14.4V166.85" transform="translate(-182.755 37.756)"/><rect class="d" width="138.389" height="91.904" rx="7.12" transform="translate(34.882 250.233)"/><rect class="b" width="138.389" height="91.904" rx="7.12" transform="translate(27.923 243.274)"/><rect class="e" width="138.389" height="17.884" transform="translate(27.923 261.274)"/><line class="b" x2="33.681" transform="translate(40.959 299.409)"/><line class="b" x2="33.681" transform="translate(40.959 306.6)"/><rect class="b" width="18.487" height="18.487" rx="2.01" transform="translate(132.353 294.445)"/><line class="b" x2="9.742" transform="translate(40.959 316.969)"/><line class="b" x2="9.719" transform="translate(60.746 316.969)"/><rect class="f" width="162.606" height="87.984" transform="translate(102.731 183.822)"/><rect class="g" width="146.137" height="73.439" transform="translate(110.525 190.85)"/><circle class="e" cx="15.781" cy="15.781" r="15.781" transform="translate(168.026 211.593)"/><line class="c" y2="10.601" transform="translate(56.083 216.065)"/><line class="c" x1="10.601" transform="translate(50.771 221.353)"/><line class="c" y2="10.578" transform="translate(199.32 283.937)"/><line class="c" x1="10.578" transform="translate(194.032 289.226)"/><line class="c" y2="10.601" transform="translate(185.356 303.677)"/><line class="c" x1="10.578" transform="translate(180.067 308.989)"/><line class="c" y2="10.578" transform="translate(247.406 169.672)"/><line class="c" x1="10.578" transform="translate(242.117 174.961)"/><line class="c" x2="128.855" transform="translate(70.465 115.254)"/><circle class="f" cx="2.227" cy="2.227" r="2.227" transform="translate(80.741 104.003)"/><path class="f" d="M266.959,64.78a2.32,2.32,0,1,1-2.32-2.32A2.32,2.32,0,0,1,266.959,64.78Z" transform="translate(-170.746 41.451)"/><circle class="f" cx="2.227" cy="2.227" r="2.227" transform="translate(102.754 104.003)"/><g transform="translate(179.588 220.439)"><path class="f" d="M82.031,3.31a.323.323,0,0,0-.239-.093H80.018a3.592,3.592,0,0,0-.664-1.494h2.418a.319.319,0,0,0,.332-.332V.332A.319.319,0,0,0,81.771,0H73.138a.32.32,0,0,0-.332.332v1.38a.337.337,0,0,0,.332.332h1.5q2.189,0,2.781,1.173H73.138a.32.32,0,0,0-.332.332V4.607a.32.32,0,0,0,.332.332h4.431a2.028,2.028,0,0,1-1.064,1.3,4.683,4.683,0,0,1-2.205.446H73.138a.337.337,0,0,0-.332.332V8.333a.31.31,0,0,0,.093.228q1.992,2.117,5.168,5.925a.306.306,0,0,0,.259.125H80.35a.3.3,0,0,0,.3-.187.283.283,0,0,0-.042-.353q-3.03-3.715-4.763-5.562A5.263,5.263,0,0,0,78.71,7.367a3.879,3.879,0,0,0,1.339-2.428h1.743a.32.32,0,0,0,.332-.332V3.549A.323.323,0,0,0,82.031,3.31Z" transform="translate(-72.806 0)"/></g></g></svg>