<svg xmlns="http://www.w3.org/2000/svg" width="250.378" height="226.404" viewBox="0 0 250.378 226.404"><defs><style>.a{fill:rgba(83,144,95,0.2);}.aa,.b,.c,.f,.g,.j,.n,.x{fill:none;}.b{stroke:#53905f;}.aa,.b,.f,.g,.n,.x{stroke-linecap:round;}.b,.c{stroke-miterlimit:10;}.c{stroke:#173a50;}.d,.w{fill:#ffdbc4;}.aa,.ab,.d,.e,.f,.h,.i,.j,.k,.l,.o,.q,.r,.s,.t,.u,.v,.x,.y,.z{fill-rule:evenodd;}.e{fill:#173a50;}.f,.g{stroke:#fff;stroke-width:0.57px;}.aa,.f,.g,.n,.x{stroke-linejoin:round;}.h,.m{fill:#fff;}.i{fill:#2c7594;}.j{stroke:#1e5d78;stroke-miterlimit:22.93;stroke-width:1.2px;}.k{fill:#ffc19a;}.l{fill:#44494c;}.n{stroke:#b3bfc7;}.aa,.n{stroke-width:2.4px;}.o{fill:#1b455f;}.p,.u{fill:#38413e;}.ac,.q{fill:#e6e6e6;}.r{fill:#656e6b;}.s{fill:#79a581;}.t{fill:#53905f;}.v{fill:#fab361;}.x{stroke:#ffdbc4;stroke-width:6px;}.y{fill:#4e6371;}.z{fill:#265572;}.aa{stroke:#6d7478;}.ab{fill:#aaacad;}</style></defs><g transform="translate(-54.024 -179.821)"><g transform="translate(-2950 36.141)"><path class="a" d="M442.9,149.8A110.982,110.982,0,0,0,430.985,183.1a82.151,82.151,0,0,0-1.67,27.832,71.934,71.934,0,0,0,5.355,18.12c12.114,28.2,38.969,50.9,68.959,51.47a126.52,126.52,0,0,0,25.307-2.85c12.216-2.219,24.615-4.459,37.055-4.072,11.422.387,22.64,3.013,34,4.194s23.312.814,33.533-4.418c9.467-4.846,16.675-13.5,21.663-23.068s7.961-20.075,10.791-30.54a130.949,130.949,0,0,0,4.072-18.711c2.932-24.717-7.818-49.5-23.6-68.389s-36.3-32.841-56.417-46.6a104.423,104.423,0,0,0-16.288-9.691c-12.5-5.5-26.773-5.762-40.048-2.769-17.856,4.072-33.635,11.972-45.973,25.674C472.682,115.916,454.236,130.087,442.9,149.8Z" transform="translate(2583.867 80.685)"/><path class="b" d="M527.77,185.607A47.194,47.194,0,0,0,552.67,166" transform="translate(2686.386 178.374)"/><path class="b" d="M511.5,177a100.8,100.8,0,0,0,16.064.468" transform="translate(2669.531 189.77)"/><path class="b" d="M431.69,157.45A82.967,82.967,0,0,0,498.634,199.9c25.287,2.036,52.712-10.546,78.569-4.785" transform="translate(2586.847 169.516)"/><line class="c" y2="9.61" transform="translate(3028.616 205.153)"/><line class="c" x1="9.63" transform="translate(3023.811 209.958)"/><line class="c" y2="9.61" transform="translate(3050.747 178.827)"/><line class="c" x1="9.63" transform="translate(3045.942 183.632)"/><line class="c" y2="9.61" transform="translate(3077.765 189.862)"/><line class="c" x1="9.61" transform="translate(3072.96 194.667)"/><line class="c" y2="9.61" transform="translate(3190.458 194.667)"/><line class="c" x1="9.61" transform="translate(3185.652 199.472)"/><line class="c" y2="9.63" transform="translate(3226.739 228.994)"/><line class="c" x1="9.61" transform="translate(3221.934 233.82)"/><line class="c" y2="9.61" transform="translate(3216.62 178.542)"/><line class="c" x1="9.61" transform="translate(3211.815 183.347)"/></g><g transform="translate(50 179.821)"><g transform="translate(4.024)"><path class="d" d="M185.254,195.492l1.189-7.782,11.333.748-.8,5.45s-1.42,6.2-6.018,5.831S184.394,199.783,185.254,195.492Z" transform="translate(-49.727 -47.389)"/><path class="e" d="M184.721,195.83c-2.8,2.729-2.706,5.764-1.233,8.9h27.958c1.017-4.695-10.294-8.387-15.19-8.544C193.639,199.194,187.525,199.538,184.721,195.83Z" transform="translate(-49.075 -49.439)"/><path class="f" d="M203.349,196.67c-2.639.434-2.751,1.592-1.787,2.243S203.073,197.918,203.349,196.67Z" transform="translate(-53.754 -49.651)"/><line class="g" x2="1.099" y2="1.929" transform="translate(150.664 147.229)"/><path class="h" d="M182.79,204.87a12.127,12.127,0,0,0,.748,2.138H211.5a2.99,2.99,0,0,0-.366-2.138Z" transform="translate(-49.155 -51.721)"/><path class="i" d="M142.976,123.348l39.366,7.132c4.65.845,6.481,7.139,5.98,11.4L184.794,173.5a18.4,18.4,0,0,1-14.846,0l3.469-31.92H133.6s-11.961-.748-11.213-10.159S142.976,123.348,142.976,123.348Z" transform="translate(-33.897 -31.123)"/><path class="j" d="M140.08,128.87c5.98,4.381,16.82,6.137,16.82,6.137l25.192,3.88a4.216,4.216,0,0,1,3.738,4.71l-4.067,32.892" transform="translate(-38.372 -32.534)"/><path class="k" d="M141.225,43.47l10.757,2.99-3.738,14.2c-1.757,6.728-12.477,3.573-10.757-2.99Z" transform="translate(-37.671 -10.974)"/><path class="d" d="M140.391,4.13c-21.126.112-19.72,21.828-8.971,33.438,4.216,4.567,14.39,6.631,19.645,6.631,2.788-.157,3.655-1.622,4.657-4.814.15-.456,1.906-.635.748-2.026,1.383-.546.381-1.5.449-1.951C158.713,23.663,152.508,4.07,140.391,4.13Z" transform="translate(-34.257 -1.043)"/><path class="l" d="M138.7,0a20.3,20.3,0,0,1,20.3,20.3H138.7v15c-2.766,2.459-7.931,4.082-11.123,1.981A20.3,20.3,0,0,1,138.7,0Z" transform="translate(-32.899)"/><path class="m" d="M160.751,24.43a2.041,2.041,0,1,1,0,4.082l-16.64,1.5-1.63,9.15a6.1,6.1,0,0,1-.9,3.155c-2.8,4.71-10.623,6.511-15.272,3.738a2.036,2.036,0,0,1,2.071-3.506c2.721,1.615,8.066.434,9.718-2.317a2.123,2.123,0,0,0,.329-1.084l1.63-11.213A2.033,2.033,0,0,1,142.1,25.9Z" transform="translate(-34.644 -6.168)"/><path class="n" d="M125,17.765A16.349,16.349,0,0,1,136.422,6.23" transform="translate(-34.565 -1.573)"/><path class="d" d="M166.409,35.231c1.906,3.865,4.239,7.647-.957,7.475S162.881,34.677,166.409,35.231Z" transform="translate(-44.04 -8.887)"/><path class="l" d="M162.074,36.642c.516,0,.934-1.039.934-2.317S162.59,32,162.074,32s-.934,1.047-.934,2.325S161.559,36.642,162.074,36.642Z" transform="translate(-43.689 -8.079)"/><path class="k" d="M166.785,48.836l-.172-.284h0a15.3,15.3,0,0,1-2.676-.2h-.067A4.6,4.6,0,0,0,166.785,48.836Z" transform="translate(-44.378 -12.206)"/><path class="e" d="M122.83,120.8c10.189,2.99,23.735-5.98,24.759-12.708-7.543-9.105-5.076-34.193-2.841-43.911a17.126,17.126,0,0,1-11.587-5.4C120.871,74.179,113.052,113.919,122.83,120.8Z" transform="translate(-32.904 -14.839)"/><path class="o" d="M139.923,121.337c5.823-2.646,10.518-7.244,11.108-11.131-7.281-8.776-5.233-32.481-3.072-42.827-6.653-.523-12.6.606-13.366,4.71-1.368,7.281,1.091,17.014,4.994,21.118,3.424,3.588,2.527,8.47,2.243,12.432s-15.227,14.009-7.617,10.353,7.617-8.223,8.836-6.092-4.874,8.836-8.529,11.273,5.173-1.831,9.718-4.874C148.639,113.369,143.75,118.183,139.923,121.337Z" transform="translate(-36.346 -16.98)"/><rect class="p" width="10.331" height="10.331" transform="translate(164.643 91.139) rotate(-25.45)"/><path class="l" d="M274.862,212.615q-.792-.045-1.592-.045v12.342h.815a13.059,13.059,0,1,1-.845,26.1v12.342a25.385,25.385,0,0,0,1.622-50.743Zm-1.592-.045a25.372,25.372,0,0,0-1.6,50.7c.538.037,1.069.052,1.6.052v-12.3h-.822a13.03,13.03,0,0,1,.822-26.037Z" transform="translate(-65.568 -53.665)"/><path class="q" d="M277.137,223.82h-1.069v3.969h.815a13.04,13.04,0,1,1-.815,26.067v3.962a17,17,0,0,0,1.069-33.961Zm-1.069,0A17,17,0,0,0,275,257.788h1.069v-3.932h-.822a13.03,13.03,0,0,1,.822-26.037Z" transform="translate(-68.396 -56.505)"/><path class="q" d="M264.4,231.737l-1.114,1.667,11.654,7.745-12.469,6.19.89,1.794,12.529-6.22-.875,13.889,2,.127.875-13.964,11.594,7.707,1.114-1.667-11.654-7.745,12.469-6.19-.89-1.794-12.536,6.22.875-13.889-2-.127-.882,13.957Z" transform="translate(-69.27 -56.924)"/><path class="h" d="M279.306,234.244a9.18,9.18,0,1,0,8.589,9.718,9.18,9.18,0,0,0-8.589-9.718Z" transform="translate(-71.058 -59.132)"/><path class="r" d="M271.322,222.658l-1.062.478a.463.463,0,0,0-.224.605l5.375,11.662a.456.456,0,0,0,.6.224l1.054-.486a.456.456,0,0,0,.232-.6L271.92,222.9a.456.456,0,0,0-.6-.247Z" transform="translate(-71.171 -56.203)"/><path class="s" d="M275.891,231.538l-2.243,1.024a.979.979,0,0,0-.478,1.293l8.821,19.2a.979.979,0,0,0,1.293.478l2.243-1.024a.987.987,0,0,0,.486-1.293l-8.814-19.2a.972.972,0,0,0-1.308-.478Z" transform="translate(-71.95 -58.429)"/><path class="t" d="M261.88,200.19c-21.17,5.741-18.89,17.111-21.29,30.193l60.858-11.677C298.2,206.1,283.043,194.434,261.88,200.19Z" transform="translate(-63.747 -50.158)"/><path class="t" d="M183.908,91.71,195.8,92.1c4.485,5.352,4.837,11.213.673,17.717,0,.852-.553,1.069-1.674,1.689l-11.408,6.362V92.024ZM183.393,201.5h.9c6.563.5,13.164-4.9,16.782-10.4L219.6,162.981c7.475-11.333-4.538-36.794-20.079-50.444-1.308-1.151-2.467-1.226-4.156-.067l-11.961,6.653V135.89l9.083,19.361-4.71,16.035a9.883,9.883,0,0,1-4.373,5.592Zm0-83.635-4.313,2.407c-1.024.568-2.915.2-3.409-.86l-8.268-17.62,15.99-9.77v25.843Zm0,1.256-3.962,2.243a2.922,2.922,0,0,0-1.293,3.342l5.233,11.213v-16.8Zm0,57.755V201.5h-44.9c-3.917,0-7.73-3.319-10.623-5.98L112.66,181.707l-66.15.187c1.383-18.8,15.848-40,22.7-39.448l76.249,6.182-2.99,14.629c-1.5,7.229,1.174,14.682,6.728,15.183h27.958a10.413,10.413,0,0,0,6.242-1.562Z" transform="translate(-14.75 -23.153)"/><path class="u" d="M230.31,91.71,242.2,92.1c4.485,5.352,4.837,11.213.673,17.717C237.838,105.383,241.389,97.907,230.31,91.71Z" transform="translate(-61.151 -23.153)"/><path class="r" d="M83.313,234.244a9.187,9.187,0,1,0,9.718,8.582,9.187,9.187,0,0,0-9.718-8.582Z" transform="translate(-21.86 -59.132)"/><path class="l" d="M78.391,263.321c.531,0,1.069,0,1.615-.052a25.372,25.372,0,0,0-1.615-50.7v12.342a13.03,13.03,0,0,1,.83,26.037h-.83Zm-1.622-50.7a25.372,25.372,0,0,0,1.622,50.7v-12.3a13.03,13.03,0,0,1-.83-26.037h.83V212.57c-.523,0-1.062.015-1.607.052Z" transform="translate(-16.363 -53.665)"/><path class="q" d="M81.273,257.765H82.35a17.008,17.008,0,0,0-1.076-34v3.969a13.03,13.03,0,0,1,.83,26.037h-.83ZM80.189,223.8a17,17,0,0,0,1.084,33.961v-3.925a13.03,13.03,0,0,1-.83-26.037h.83v-3.969a4.247,4.247,0,0,0-1.069-.03Z" transform="translate(-19.245 -56.489)"/><path class="q" d="M68.47,233.4l-.89,1.794,12.536,6.212L68.529,249.12l1.106,1.667,11.647-7.752.89,13.889,2-.127-.89-13.964,12.476,6.182.89-1.794-12.536-6.212L95.7,233.294l-1.114-1.667-11.647,7.752-.882-13.889-2,.127.89,13.957Z" transform="translate(-20.069 -56.926)"/><path class="u" d="M213.931,200.7c-3.842,8.059-15.788,32.653-28.317,33.415h-49.6c-3.9,0-7.7-2.377-10.959-4.687l-13.1-9.636H50.66c2.878-5.158,4.926-7.475,9.531-10.421l53.517-.149,11.766,10.391c2.938,2.586,8.589,8.843,14.061,9.419h45.809C191.893,229.017,209.513,207.405,213.931,200.7Z" transform="translate(-15.798 -50.668)"/><rect class="p" width="1.45" height="15.609" transform="translate(160.477 59.351) rotate(-3.66)"/><rect class="p" width="3.192" height="4.067" rx="1.17" transform="translate(159.339 55.373) rotate(-3.65)"/><rect class="p" width="2.616" height="1.45" transform="translate(156.823 56.822) rotate(-3.65)"/><path class="s" d="M208.173,70.07a19.227,19.227,0,0,0,.7,10.839,5.562,5.562,0,0,0-.7-10.839Z" transform="translate(-55.438 -17.69)"/><path class="u" d="M220.8,98.712c-4.418.284-7.842,2.99-7.655,5.98s3.932,5.233,8.358,4.979,7.842-2.99,7.647-5.98S225.22,98.428,220.8,98.712Z" transform="translate(-56.817 -24.914)"/><path class="v" d="M222.92,102.118a2.938,2.938,0,1,0,3.117,2.743A2.938,2.938,0,0,0,222.92,102.118Z" transform="translate(-58.591 -25.779)"/><path class="w" d="M136.272,75.534c-2.9-5.4,6.309-10.376,9.21-4.971A199.257,199.257,0,0,1,163.833,94c10.817-.239,18.846-.68,28.915-.628,6.115-.478,6.586,6.175.463,6.653-11.37-.934-20.386,3.214-31.449,2.99h0C155.977,103.432,139.2,80.58,136.272,75.534Z" transform="translate(-37.27 -17.225)"/><path class="e" d="M139.781,86.067c-5.928-8.567-5.681-16.835-1.316-19.6,4.2-2.669,10.7.164,14.951,11.692C149.043,82.9,146.2,85.431,139.781,86.067Z" transform="translate(-37.153 -16.545)"/><path class="x" d="M218.995,109.592a4.373,4.373,0,0,1-3.147-1.5,4.881,4.881,0,0,1,.187-6.661,4.336,4.336,0,0,1,6.339.194,4.844,4.844,0,0,1,1.219,3.3" transform="translate(-57.192 -25.284)"/><path class="r" d="M219.182,103.509l-12.5.8a1.9,1.9,0,0,0-1.764,2h0a1.9,1.9,0,0,0,2.011,1.772l12.5-.8a1.9,1.9,0,0,0,1.764-2h0a1.9,1.9,0,0,0-2.011-1.772Z" transform="translate(-54.74 -26.131)"/><path class="x" d="M219.13,100.23c2.833-.792,5.636,1.682,5.6,4.7" transform="translate(-58.329 -25.266)"/><path class="u" d="M207.087,105.4a1.271,1.271,0,1,0,1.346,1.189A1.271,1.271,0,0,0,207.087,105.4Z" transform="translate(-54.987 -26.608)"/><path class="u" d="M153.573,158.775c-.957.987-1.241,1.5-4.343,1.241L79.709,154.44c-4.179-.336-6.608-.9-7.124-2.28-.748-1.936.478-13.456,2.243-14.2,4.1-1.809,38.439,6.862,45.436,6.945,8.971.1,24.736-1.772,27.181-1.062C151.578,145.006,155.472,156.764,153.573,158.775Z" transform="translate(-21.276 -34.765)"/><path class="u" d="M91.8,156.531,5.77,149.908c-2.325-.179-2.243,3.087-.262,3.237l94.475,7.3C107.3,161.016,93.323,156.65,91.8,156.531Z" transform="translate(-4.024 -37.843)"/><path class="h" d="M147.148,198.571,143.41,195.3l58.465.232c6.2.389,12.424-4.627,15.84-9.815l10.712-16.087c7.6-11.422-5.308-34.484-16.117-44.972l2.16-1.2C226,134.6,240.15,158.5,232.069,170.657l-11.721,17.635c-3.648,5.48-10.219,10.809-16.79,10.4Z" transform="translate(-39.213 -31.166)"/><path class="s" d="M114.1,200.219c6.033-1.114,11.034-2.871,16.267-13.015,3.6-6.952,7.236-16.61-3.543-19.025-11.071-2.482-36.263-5.457-50.788-.321C61.3,173.09,54.582,187.107,52.22,200.391Z" transform="translate(-16.191 -41.665)"/><path class="t" d="M126.868,187.47c3.214-6.22,6.474-14.861-3.177-17.029-9.9-2.243-32.451-4.874-45.451-.277-10.727,3.79-20.834,15.571-24.31,30.874l54.174-.15C116.372,198.159,123.324,194.325,126.868,187.47Z" transform="translate(-16.623 -42.319)"/><rect class="m" width="46.333" height="1.413" transform="translate(44.879 152.962)"/><path class="u" d="M42.8,212.342,31.92,235.419l1.114.748s3.588-1.174,3.513-2.355S48.373,212.32,48.373,212.32Z" transform="translate(-11.067 -53.602)"/><path class="y" d="M245.406,92.23c4.485,5.352,4.837,11.213.673,17.717l.269.232-.269-.232C240.846,104.886,243.432,93.927,245.406,92.23Z" transform="translate(-64.354 -23.284)"/><path class="e" d="M247.22,94.18c3.095,4.485,3.342,9.4.508,14.682C244.791,104.429,245.785,97.454,247.22,94.18Z" transform="translate(-65.069 -23.776)"/><path class="z" d="M208.173,70.07a19.227,19.227,0,0,0,.7,10.839,17.051,17.051,0,0,0,.441-5.472,16.857,16.857,0,0,0-1.136-5.367Z" transform="translate(-55.438 -17.69)"/><path class="h" d="M115.209,227.795c3.14-2.5,4.53-6.548,2.452-9.98s-6.287-4.014-9.987-2.444l-28.055,11.9h0a12.411,12.411,0,0,0-2.534,1.159,11.736,11.736,0,0,0,12.133,20.094A12.1,12.1,0,0,0,91.46,246.8h0Z" transform="translate(-21.037 -54.163)"/><path class="s" d="M121.292,218.358a4.343,4.343,0,1,0,3.3-.5,4.343,4.343,0,0,0-3.3.5Z" transform="translate(-33.1 -54.968)"/><path class="s" d="M81.015,238.171a7,7,0,1,0,9.6,2.362A7,7,0,0,0,81.015,238.171Z" transform="translate(-22.605 -59.874)"/><rect class="m" width="46.333" height="1.413" transform="translate(44.879 149.823)"/><rect class="m" width="46.333" height="1.413" transform="translate(44.887 146.683)"/><rect class="m" width="43.556" height="47.268" transform="translate(1.982 112.309) rotate(-85.426)"/><path class="q" d="M40.008,137.859l-6.728-.508,3.312-43.29,6.728.5Z" transform="translate(-11.41 -23.746)"/><path class="e" d="M207.963,71.32a20.325,20.325,0,0,0,.568,8.971A20.325,20.325,0,0,0,207.963,71.32Z" transform="translate(-55.444 -18.005)"/><line class="g" x2="1.091" y2="1.929" transform="translate(152.623 147.715)"/><line class="g" x1="0.86" y2="1.443" transform="translate(151.763 147.715)"/><line class="g" x1="0.86" y2="1.435" transform="translate(153.714 148.208)"/><path class="aa" d="M134.8,37.3c3.573,7.154,9.12,13.314,16.76,16.274" transform="translate(-37.039 -9.417)"/><path class="ab" d="M134.029,40.083A4.082,4.082,0,1,0,129.94,36,4.082,4.082,0,0,0,134.029,40.083Z" transform="translate(-35.812 -8.058)"/><rect class="ac" width="6.788" height="1.017" transform="translate(33.53 112.554) rotate(-85.59)"/><rect class="ac" width="6.788" height="1.54" transform="translate(34.913 112.661) rotate(-85.59)"/><rect class="ac" width="6.788" height="1.017" transform="translate(36.825 112.808) rotate(-85.59)"/><rect class="ac" width="6.788" height="1.017" transform="translate(38.21 112.91) rotate(-85.59)"/><rect class="ac" width="6.788" height="0.508" transform="translate(39.596 113.029) rotate(-85.59)"/><rect class="ac" width="6.788" height="0.508" transform="translate(32.645 112.483) rotate(-85.62)"/><rect class="ac" width="6.788" height="1.54" transform="translate(40.477 113.088) rotate(-85.6)"/><rect class="ac" width="6.788" height="1.017" transform="translate(42.379 113.238) rotate(-85.59)"/></g></g></g></svg>