<svg xmlns="http://www.w3.org/2000/svg" xmlns:xlink="http://www.w3.org/1999/xlink" width="255.746" height="248.834" viewBox="0 0 255.746 248.834"><defs><style>.a,.b,.d,.e,.f{fill:none;}.b{stroke:#53905f;}.b,.e{stroke-linecap:round;}.b,.d,.e,.f{stroke-miterlimit:10;}.c{fill:rgba(83,144,95,0.2);}.d,.e{stroke:#fff;}.f{stroke:#173a50;}.g{fill:#fff;}.h{fill:#173a50;}.i{clip-path:url(#a);}.j{fill:#53905f;}</style><clipPath id="a"><path class="a" d="M155.275,172.781c-2.961-23.061-9.573-47.116-31.438-59.063-20.1-10.953-48.293-10.466-68.271.568-25.191,13.894-28.923,44.621-28.112,70.745a5.618,5.618,0,0,1-.345,2.231A64.62,64.62,0,0,0,45.79,201.3c13.934,6.855,28.132,9.472,40.1,19.978,10.912,9.573,20.283,21.134,32.635,28.882a79.1,79.1,0,0,0,38.537,11.176C158.48,231.844,159.048,202.13,155.275,172.781Z" transform="translate(-27.11 -105.753)"/></clipPath></defs><g transform="translate(-52.254 -162.106)"><g transform="translate(52.254 162.106)"><path class="b" d="M28,151.84c10.324,10.324,24.217,14.806,37.259,20.526,13.447,5.9,23.3,14.725,33.73,24.927,20.932,20.566,45.129,29.43,74.538,26.631a136.42,136.42,0,0,0,44.256-11.946" transform="translate(-8.48 23.924)"/><path class="c" d="M90.772,108.684C74.121,117.71,55.258,123.206,40.938,135.6A64.9,64.9,0,0,0,54.771,243.1c13.934,6.855,28.132,9.472,40.1,19.978,10.912,9.573,20.282,21.134,32.635,28.882a79.467,79.467,0,0,0,39.247,11.216c32.878,1.237,74.437-10.993,94.8-38.537,8.3-11.216,11.8-25.353,12.453-39.267a109.829,109.829,0,0,0-12.677-56.527c-8.8-16.571-21.439-30.769-31.742-46.366-8.924-13.589-11.013-31.3-21.317-43.668-6.328-7.545-15.962-11.784-25.718-13.1a74.822,74.822,0,0,0-41.315,6.9C122.19,81.728,109.169,98.745,90.772,108.684Z" transform="translate(-18.376 -65.182)"/><path class="c" d="M128.1,106.246a23.041,23.041,0,0,0,9.878,9.127,18.254,18.254,0,0,0,17.565-2.88c7.363-5.578,12.17-15.8,9.066-24.866-2.779-8.377-10.932-14.015-18.964-16.409a62.875,62.875,0,0,0-15.861-2.191,9.249,9.249,0,0,0-7.565,2.677,10.344,10.344,0,0,0-1.825,6.369,48.333,48.333,0,0,0,7.707,28.172Z" transform="translate(86.48 -61.284)"/><path class="d" d="M103.162,137.293l-12.677-.223a6.653,6.653,0,0,1-6.876-6.714l.71-14.421a7.728,7.728,0,0,1,7.829-7.038h13.184a6.693,6.693,0,0,1,7.119,7.1l-1.278,14.745A7.707,7.707,0,0,1,103.162,137.293Z" transform="translate(48.701 -20.247)"/><line class="e" x2="40.971" y2="0.913" transform="translate(167.907 94.634)"/><line class="e" x2="40.971" y2="0.913" transform="translate(167.948 101.368)"/><line class="e" x2="20.485" y2="0.466" transform="translate(167.968 108.081)"/><path class="d" d="M103,157.782l-12.677-.223a6.653,6.653,0,0,1-6.876-6.673l.71-14.441a7.728,7.728,0,0,1,7.829-7.018h13.184a6.693,6.693,0,0,1,7.119,7.1l-1.359,14.644a7.748,7.748,0,0,1-7.93,6.612Z" transform="translate(48.537 0.863)"/><line class="e" x2="40.971" y2="0.933" transform="translate(167.582 136.213)"/><line class="e" x2="40.971" y2="0.913" transform="translate(167.623 142.947)"/><line class="e" x2="20.485" y2="0.466" transform="translate(167.643 149.681)"/><path class="d" d="M101.652,177.431,89,177.289a6.632,6.632,0,0,1-6.876-6.714l.69-14.421a7.748,7.748,0,0,1,7.829-7.038h13.184a6.734,6.734,0,0,1,7.139,7.1l-1.278,14.745a7.768,7.768,0,0,1-8.032,6.47Z" transform="translate(47.169 21.11)"/><path class="f" d="M167.8,269.969,84.5,269.1a10.141,10.141,0,0,1-9.979-10.811L84.46,83.025A11.135,11.135,0,0,1,95.453,72.64h81.921a9.878,9.878,0,0,1,10,10.445l-8.417,176.235A11.237,11.237,0,0,1,167.8,269.969Z" transform="translate(39.333 -57.514)"/><path class="g" d="M55.367,113.084l5.983-3.063L54.15,99.84Z" transform="translate(18.409 -29.545)"/><path class="g" d="M87.78,137.887l5.578-26.367,3.509.872-1.055,8.559,6.835,4.057a4.057,4.057,0,0,1,2.028,4.178l-.75,5.152L93.561,148.069Z" transform="translate(52.989 -17.535)"/><path class="g" d="M76.951,105.143l4.361,33.182L71.576,142.5l2.535,13.082-27.767,3.367L46,142.889,32.35,97.76,77.519,86.99Z" transform="translate(-4.007 -42.758)"/><path class="h" d="M45.183,143.97,61.9,141.942,64.269,129l4.766-19.654L77.351,106s9.573-13.731.568-18.254-40.565.487-45.169,10.77S45.183,143.97,45.183,143.97Z" transform="translate(-4.407 -43.698)"/><path class="g" d="M56.655,107.7a5.557,5.557,0,1,1-1.621-3.943A5.578,5.578,0,0,1,56.655,107.7Z" transform="translate(9.515 -27.201)"/><g class="i" transform="translate(17.715 82.287)"><path class="j" d="M33.218,142.187v91.819l58.6-.771L93.842,183.5l1.866-45.7A20.1,20.1,0,0,0,73.4,120.261l-24.582,2.982a17.686,17.686,0,0,0-15.6,18.944Z" transform="translate(-20.886 -90.979)"/></g><path class="h" d="M125.208,127.65c-.3.243-.649.487-.953.771l-21.682,21.763L69.452,122.965a11.053,11.053,0,1,0-14.036,17.079l40.87,33.587a11.135,11.135,0,0,0,7.058,2.495,10.993,10.993,0,0,0,7.809-3.225l28.7-28.7C135,138.664,130.259,133.045,125.208,127.65Z" transform="translate(15.561 -8.353)"/><path class="d" d="M104.352,116.782,91.7,116.559a6.653,6.653,0,0,1-6.9-6.632l.71-14.421a7.748,7.748,0,0,1,7.809-7.119H106.5a6.693,6.693,0,0,1,7.1,7.038l-1.278,14.745A7.707,7.707,0,0,1,104.352,116.782Z" transform="translate(49.925 -41.335)"/><line class="e" x2="40.971" y2="0.913" transform="translate(170.32 53.035)"/><line class="e" x2="40.971" y2="0.913" transform="translate(170.361 59.768)"/><line class="e" x2="20.485" y2="0.466" transform="translate(170.402 66.482)"/><path class="j" d="M166.581,173.066l-62.146-1.481a5.74,5.74,0,0,1-5.415-6.409l.933-12.453a6.267,6.267,0,0,1,6.085-5.963l60.6,1.4a6.085,6.085,0,0,1,5.659,6.227V166.88a5.9,5.9,0,0,1-5.72,6.186Z" transform="translate(64.506 18.7)"/><line class="f" x2="102.913" y2="0.061" transform="translate(123.793 25.511)"/><path class="h" d="M88.076,75.883a1.643,1.643,0,1,1-1.623-1.643,1.643,1.643,0,0,1,1.623,1.643Z" transform="translate(49.914 -55.868)"/><path class="h" d="M91.506,75.883a1.643,1.643,0,1,1-1.643-1.643,1.643,1.643,0,0,1,1.643,1.643Z" transform="translate(53.441 -55.868)"/><path class="h" d="M94.921,75.975a1.643,1.643,0,1,1-.759-1.574,1.643,1.643,0,0,1,.759,1.574Z" transform="translate(56.963 -55.961)"/><path class="j" d="M88.161,74.69a19.491,19.491,0,1,0-5.72,30.079l8.64,2.961-1.765-8.945a19.492,19.492,0,0,0-1.156-24.1Z" transform="translate(18.209 -62.301)"/><path class="b" d="M125.29,188.036s16-7.809,23.954-16.936" transform="translate(91.558 43.728)"/></g><g transform="translate(135.325 177.653)"><g transform="translate(0 0)"><g transform="translate(0 0)"><path class="g" d="M290.162,197.855a.292.292,0,0,0,.392.127,24.982,24.982,0,0,1,2.578-1.147.292.292,0,0,0-.176-.556,24.991,24.991,0,0,0-2.666,1.184A.292.292,0,0,0,290.162,197.855Z" transform="translate(-280.224 -189.565)"/><path class="g" d="M290.422,95.616a.291.291,0,0,0,.132-.032,24.977,24.977,0,0,1,2.578-1.147.292.292,0,0,0-.176-.556,24.988,24.988,0,0,0-2.666,1.184.291.291,0,0,0,.133.551Z" transform="translate(-280.224 -90.662)"/><path class="g" d="M17.192,4.37a.291.291,0,0,0-.291.291V16.025a.875.875,0,0,1-.874.874H9.034v-.67a8.586,8.586,0,0,1,2.622-.5,15.028,15.028,0,0,1,4.279.568.291.291,0,0,0,.383-.277V3.2a.291.291,0,0,0-.228-.284s-.228-.051-.619-.123a.291.291,0,0,0-.105.573c.149.027.274.052.37.071v12.2a16.454,16.454,0,0,0-4.079-.487,9.153,9.153,0,0,0-2.9.558A6.825,6.825,0,0,0,6.12,15.15a19.634,19.634,0,0,0-4.37.5V3.43a19.178,19.178,0,0,1,4.37-.517,6.317,6.317,0,0,1,2.331.48V14.859a.291.291,0,0,0,.441.25,33.356,33.356,0,0,1,5.478-2.6.291.291,0,0,0,.2-.276V.291a.292.292,0,0,0-.394-.273A30.993,30.993,0,0,0,9.462,2.375a.291.291,0,0,0,.309.494A31.141,31.141,0,0,1,13.987.717V12.028a32.651,32.651,0,0,0-4.953,2.325V3.2a.292.292,0,0,0-.161-.261A6.746,6.746,0,0,0,6.12,2.331a18.91,18.91,0,0,0-4.742.594.291.291,0,0,0-.211.28v12.82a.291.291,0,0,0,.291.291.287.287,0,0,0,.08-.011,18.716,18.716,0,0,1,4.582-.571,6.3,6.3,0,0,1,2.331.48V16.9H1.459a.875.875,0,0,1-.874-.874V4.662a.291.291,0,1,0-.583,0V16.025a1.458,1.458,0,0,0,1.457,1.457H16.026a1.458,1.458,0,0,0,1.457-1.457V4.662A.291.291,0,0,0,17.192,4.37Z" transform="translate(-0.002 0)"/><path class="g" d="M290.162,146.655a.292.292,0,0,0,.392.127,24.986,24.986,0,0,1,2.578-1.147.292.292,0,0,0-.176-.556,25,25,0,0,0-2.666,1.184A.292.292,0,0,0,290.162,146.655Z" transform="translate(-280.224 -140.113)"/><path class="g" d="M290.162,249.055a.292.292,0,0,0,.392.127,24.983,24.983,0,0,1,2.578-1.147.292.292,0,0,0-.176-.556,25,25,0,0,0-2.666,1.184A.292.292,0,0,0,290.162,249.055Z" transform="translate(-280.224 -239.017)"/><path class="g" d="M89.479,153.806a9.247,9.247,0,0,0-3.929.139.291.291,0,0,0,.075.573.3.3,0,0,0,.076-.01,8.781,8.781,0,0,1,3.646-.134.291.291,0,1,0,.133-.567Z" transform="translate(-82.42 -148.399)"/><path class="g" d="M89.479,205.009a9.252,9.252,0,0,0-3.929.139.291.291,0,0,0,.075.573.3.3,0,0,0,.076-.01,8.781,8.781,0,0,1,3.646-.134.291.291,0,1,0,.133-.567Z" transform="translate(-82.42 -197.854)"/><path class="g" d="M290.162,300.256a.292.292,0,0,0,.392.127,24.979,24.979,0,0,1,2.578-1.147.292.292,0,0,0-.176-.556,24.994,24.994,0,0,0-2.666,1.184A.292.292,0,0,0,290.162,300.256Z" transform="translate(-280.224 -288.469)"/><path class="g" d="M89.479,256.208a9.246,9.246,0,0,0-3.929.139.292.292,0,0,0,.075.573.3.3,0,0,0,.076-.01,8.781,8.781,0,0,1,3.646-.134.291.291,0,1,0,.133-.567Z" transform="translate(-82.42 -247.305)"/><path class="g" d="M89.479,358.606a9.246,9.246,0,0,0-3.929.139.292.292,0,0,0,.075.573.294.294,0,0,0,.076-.01,8.78,8.78,0,0,1,3.646-.134.291.291,0,1,0,.133-.567Z" transform="translate(-82.42 -346.206)"/><path class="g" d="M89.479,307.4a9.241,9.241,0,0,0-3.929.139.292.292,0,0,0,.075.573.3.3,0,0,0,.076-.01,8.78,8.78,0,0,1,3.646-.134.291.291,0,1,0,.133-.567Z" transform="translate(-82.42 -296.753)"/></g></g></g></g></svg>